# xmcd
#
# Track frame offsets: 
#        180
#        12305
#        24690
#        38855
#        53071
#        68996
#        83003
#        101553
#        118973
#        137877
#        152467
#        167399
#        181239
#        192281
#
# Disc length: 2714 seconds
#
# Revision: 4
# Processed by: cddbd v1.5.2PL0 Copyright (c) Steve Scherf et al.
# Submitted via: ExactAudioCopy v0.99pb5
#
DISCID=b30a980e
DTITLE=Various Artist - Country Hits [CD 3)
DYEAR=1900
DGENRE=country
TTITLE0=Willie Nelson - Crazy
TTITLE1=Johnny Cash - I Walk The Line
TTITLE2=Dolly Parton - I Will Always Love You
TTITLE3=Justin Tubbs - Lonesome 77203
TTITLE4=Brown, Frey - Take It Easy
TTITLE5=D. Bellamy - If I Sad You Have A Beautiful Body
TTITLE6=Twain, Lange - Any Man Of Mine
TTITLE7=Garver, Sanderson, Yates, Brooks - Red Strokes
TTITLE8=B., R. and M. Gibb - Islands In The Stream
TTITLE9=Astor, Löhmer, kermit - Devil
TTITLE10=Travis - Sixteen Tons
TTITLE11=Willie Nelson - Home Is Where You're Happy
TTITLE12=Roger Miller - King Of The Road
TTITLE13=James - Jenny Lou
EXTD=Magic
EXTT0=
EXTT1=
EXTT2=
EXTT3=
EXTT4=
EXTT5=
EXTT6=
EXTT7=
EXTT8=
EXTT9=
EXTT10=
EXTT11=
EXTT12=
EXTT13=
PLAYORDER=
